<svg width="127" height="21" viewBox="0 0 127 21" fill="none" xmlns="http://www.w3.org/2000/svg">
<path d="M9.49609 20H5.56055V4.71484H0.520508V1.43945H14.5361V4.71484H9.49609V20ZM29.9863 12.8779C29.9863 14.0628 29.8255 15.1123 29.5039 16.0264C29.1908 16.9404 28.7295 17.7148 28.1201 18.3496C27.5192 18.9759 26.7913 19.4499 25.9365 19.7715C25.0902 20.0931 24.1338 20.2539 23.0674 20.2539C22.0687 20.2539 21.1504 20.0931 20.3125 19.7715C19.4831 19.4499 18.7594 18.9759 18.1416 18.3496C17.5322 17.7148 17.0583 16.9404 16.7197 16.0264C16.3896 15.1123 16.2246 14.0628 16.2246 12.8779C16.2246 11.3037 16.5039 9.9707 17.0625 8.87891C17.6211 7.78711 18.4167 6.95768 19.4492 6.39062C20.4818 5.82357 21.7132 5.54004 23.1436 5.54004C24.4723 5.54004 25.6488 5.82357 26.6729 6.39062C27.7054 6.95768 28.5137 7.78711 29.0977 8.87891C29.6901 9.9707 29.9863 11.3037 29.9863 12.8779ZM20.1729 12.8779C20.1729 13.8089 20.2744 14.5918 20.4775 15.2266C20.6807 15.8613 20.998 16.3395 21.4297 16.6611C21.8613 16.9827 22.4242 17.1436 23.1182 17.1436C23.8037 17.1436 24.3581 16.9827 24.7812 16.6611C25.2129 16.3395 25.526 15.8613 25.7207 15.2266C25.9238 14.5918 26.0254 13.8089 26.0254 12.8779C26.0254 11.9385 25.9238 11.1598 25.7207 10.542C25.526 9.91569 25.2129 9.44596 24.7812 9.13281C24.3496 8.81966 23.7868 8.66309 23.0928 8.66309C22.0687 8.66309 21.3239 9.01432 20.8584 9.7168C20.4014 10.4193 20.1729 11.473 20.1729 12.8779ZM31.9287 14.6172V11.4434H38.7461V14.6172H31.9287ZM46.0586 20.2539C44.4759 20.2539 43.1852 19.6361 42.1865 18.4004C41.1963 17.1562 40.7012 15.3324 40.7012 12.9287C40.7012 10.4997 41.2048 8.66309 42.2119 7.41895C43.2191 6.16634 44.5352 5.54004 46.1602 5.54004C46.8372 5.54004 47.4339 5.63314 47.9502 5.81934C48.4665 6.00553 48.9108 6.25521 49.2832 6.56836C49.6641 6.88151 49.9857 7.23275 50.248 7.62207H50.375C50.3242 7.35124 50.2607 6.95345 50.1846 6.42871C50.1169 5.89551 50.083 5.34961 50.083 4.79102V0.246094H53.9678V20H50.9971L50.248 18.1592H50.083C49.8376 18.5485 49.5286 18.904 49.1562 19.2256C48.7923 19.5387 48.3564 19.7884 47.8486 19.9746C47.3408 20.1608 46.7441 20.2539 46.0586 20.2539ZM47.417 17.1689C48.4749 17.1689 49.2197 16.8558 49.6514 16.2295C50.0915 15.5947 50.3242 14.6426 50.3496 13.373V12.9541C50.3496 11.5745 50.138 10.5208 49.7148 9.79297C49.2917 9.05664 48.5046 8.68848 47.3535 8.68848C46.4987 8.68848 45.8301 9.05664 45.3477 9.79297C44.8652 10.5293 44.624 11.5915 44.624 12.9795C44.624 14.3675 44.8652 15.4128 45.3477 16.1152C45.8385 16.8177 46.5283 17.1689 47.417 17.1689ZM70.916 12.8779C70.916 14.0628 70.7552 15.1123 70.4336 16.0264C70.1204 16.9404 69.6592 17.7148 69.0498 18.3496C68.4489 18.9759 67.721 19.4499 66.8662 19.7715C66.0199 20.0931 65.0635 20.2539 63.9971 20.2539C62.9984 20.2539 62.0801 20.0931 61.2422 19.7715C60.4128 19.4499 59.6891 18.9759 59.0713 18.3496C58.4619 17.7148 57.988 16.9404 57.6494 16.0264C57.3193 15.1123 57.1543 14.0628 57.1543 12.8779C57.1543 11.3037 57.4336 9.9707 57.9922 8.87891C58.5508 7.78711 59.3464 6.95768 60.3789 6.39062C61.4115 5.82357 62.6429 5.54004 64.0732 5.54004C65.402 5.54004 66.5785 5.82357 67.6025 6.39062C68.6351 6.95768 69.4434 7.78711 70.0273 8.87891C70.6198 9.9707 70.916 11.3037 70.916 12.8779ZM61.1025 12.8779C61.1025 13.8089 61.2041 14.5918 61.4072 15.2266C61.6104 15.8613 61.9277 16.3395 62.3594 16.6611C62.791 16.9827 63.3538 17.1436 64.0479 17.1436C64.7334 17.1436 65.2878 16.9827 65.7109 16.6611C66.1426 16.3395 66.4557 15.8613 66.6504 15.2266C66.8535 14.5918 66.9551 13.8089 66.9551 12.8779C66.9551 11.9385 66.8535 11.1598 66.6504 10.542C66.4557 9.91569 66.1426 9.44596 65.7109 9.13281C65.2793 8.81966 64.7165 8.66309 64.0225 8.66309C62.9984 8.66309 62.2536 9.01432 61.7881 9.7168C61.3311 10.4193 61.1025 11.473 61.1025 12.8779ZM72.8584 14.6172V11.4434H79.6758V14.6172H72.8584ZM82.7988 20V1.43945H86.7344V16.75H94.2627V20H82.7988ZM101.067 5.80664V20H97.1953V5.80664H101.067ZM99.1377 0.246094C99.7132 0.246094 100.208 0.38151 100.623 0.652344C101.038 0.914714 101.245 1.40983 101.245 2.1377C101.245 2.8571 101.038 3.35645 100.623 3.63574C100.208 3.90658 99.7132 4.04199 99.1377 4.04199C98.5537 4.04199 98.0544 3.90658 97.6396 3.63574C97.2334 3.35645 97.0303 2.8571 97.0303 2.1377C97.0303 1.40983 97.2334 0.914714 97.6396 0.652344C98.0544 0.38151 98.5537 0.246094 99.1377 0.246094ZM115.045 15.7852C115.045 16.75 114.816 17.5667 114.359 18.2354C113.911 18.8955 113.238 19.3991 112.341 19.7461C111.444 20.0846 110.326 20.2539 108.989 20.2539C107.999 20.2539 107.148 20.1904 106.438 20.0635C105.735 19.9365 105.024 19.7249 104.305 19.4287V16.2295C105.075 16.5765 105.9 16.8643 106.78 17.0928C107.669 17.3128 108.448 17.4229 109.116 17.4229C109.869 17.4229 110.407 17.3128 110.729 17.0928C111.059 16.8643 111.224 16.568 111.224 16.2041C111.224 15.9671 111.156 15.7555 111.021 15.5693C110.894 15.3747 110.614 15.1589 110.183 14.9219C109.751 14.6764 109.074 14.359 108.151 13.9697C107.263 13.5973 106.531 13.2207 105.955 12.8398C105.388 12.459 104.965 12.0104 104.686 11.4941C104.415 10.9694 104.279 10.305 104.279 9.50098C104.279 8.18913 104.787 7.20312 105.803 6.54297C106.827 5.87435 108.194 5.54004 109.903 5.54004C110.784 5.54004 111.621 5.62891 112.417 5.80664C113.221 5.98438 114.046 6.2679 114.893 6.65723L113.725 9.4502C113.022 9.14551 112.358 8.89583 111.731 8.70117C111.114 8.50651 110.483 8.40918 109.84 8.40918C109.273 8.40918 108.845 8.48535 108.558 8.6377C108.27 8.79004 108.126 9.02279 108.126 9.33594C108.126 9.56445 108.198 9.76758 108.342 9.94531C108.494 10.123 108.782 10.3219 109.205 10.542C109.637 10.7536 110.267 11.0286 111.097 11.3672C111.901 11.6973 112.599 12.0443 113.191 12.4082C113.784 12.7637 114.241 13.208 114.562 13.7412C114.884 14.266 115.045 14.9473 115.045 15.7852ZM124.046 17.1689C124.469 17.1689 124.88 17.1266 125.277 17.042C125.684 16.9574 126.086 16.8516 126.483 16.7246V19.6064C126.069 19.7926 125.552 19.945 124.935 20.0635C124.325 20.1904 123.657 20.2539 122.929 20.2539C122.082 20.2539 121.321 20.1185 120.644 19.8477C119.975 19.5684 119.446 19.0902 119.057 18.4131C118.676 17.7275 118.485 16.7754 118.485 15.5566V8.71387H116.632V7.07617L118.765 5.78125L119.882 2.78516H122.357V5.80664H126.331V8.71387H122.357V15.5566C122.357 16.0983 122.51 16.5046 122.814 16.7754C123.128 17.0378 123.538 17.1689 124.046 17.1689Z" fill="white"/>
</svg>
